<?xml version="1.0" standalone="no"?>
<!DOCTYPE svg PUBLIC "-//W3C//DTD SVG 20010904//EN"
 "http://www.w3.org/TR/2001/REC-SVG-20010904/DTD/svg10.dtd">
<svg version="1.0" xmlns="http://www.w3.org/2000/svg"
 width="1170.000000pt" height="1040.000000pt" viewBox="0 0 1170.000000 1040.000000"
 preserveAspectRatio="xMidYMid meet">

<g transform="translate(0.000000,1040.000000) scale(0.100000,-0.100000)"
fill="#000000" stroke="none">
<path d="M620 8265 l0 -95 355 0 355 0 2 -1247 3 -1248 93 -3 92 -3 0 1251 0
1250 355 0 355 0 0 95 0 95 -805 0 -805 0 0 -95z"/>
<path d="M6385 8349 c-442 -47 -843 -327 -1046 -732 -102 -203 -142 -374 -142
-607 0 -227 36 -387 132 -585 185 -380 538 -647 966 -731 132 -26 377 -24 512
5 268 56 493 181 685 379 52 54 103 111 115 128 l22 31 -64 63 -64 64 -22 -30
c-49 -65 -219 -224 -293 -274 -108 -72 -246 -136 -363 -167 -90 -25 -114 -27
-288 -27 -174 0 -198 2 -288 27 -250 67 -487 227 -640 432 -77 102 -160 275
-194 401 -24 90 -27 116 -27 284 0 158 3 197 21 266 95 360 310 623 636 779
442 212 966 122 1317 -226 43 -44 93 -99 111 -124 18 -25 35 -45 39 -45 3 0
32 27 65 60 70 70 71 64 -40 191 -281 324 -703 485 -1150 438z"/>
<path d="M10100 7980 l0 -340 -120 0 -120 0 0 -70 0 -70 119 0 120 0 4 -687
c3 -620 5 -694 21 -747 38 -128 109 -229 205 -294 93 -62 172 -88 324 -106
l47 -6 0 79 0 78 -66 11 c-177 29 -315 169 -344 347 -6 35 -10 327 -10 693 l0
632 220 0 220 0 0 70 0 70 -220 0 -220 0 0 340 0 340 -90 0 -90 0 0 -340z"/>
<path d="M2450 6660 l0 -980 90 0 89 0 3 673 3 672 23 56 c30 75 109 187 169
238 91 78 241 141 335 141 l38 0 0 90 0 90 -47 0 c-64 0 -142 -22 -223 -61
-81 -41 -209 -166 -262 -259 l-38 -65 0 193 0 192 -90 0 -90 0 0 -980z"/>
<path d="M3652 6654 l419 -987 -134 -306 -135 -306 86 -3 c47 -2 88 1 92 5 4
4 204 463 445 1018 240 556 489 1129 552 1275 63 146 118 271 120 278 4 10
-16 12 -91 10 l-97 -3 -128 -295 c-70 -162 -237 -548 -371 -858 -134 -310
-246 -559 -250 -555 -4 4 -105 238 -223 518 -119 281 -282 663 -361 850 l-144
340 -100 3 -100 3 420 -987z"/>
<path d="M8510 7624 c-179 -38 -379 -154 -499 -290 -245 -277 -323 -673 -201
-1019 12 -33 32 -96 45 -141 31 -105 81 -213 144 -311 93 -146 114 -222 87
-315 -18 -63 -58 -117 -124 -170 -52 -41 -64 -65 -48 -90 17 -28 57 -21 108
20 179 141 211 357 81 551 -24 37 -30 51 -16 41 11 -8 42 -32 69 -52 76 -57
190 -114 289 -144 82 -25 105 -28 255 -28 143 -1 176 2 243 22 243 70 434 221
567 448 l40 69 0 -268 0 -267 90 0 90 0 0 980 0 980 -90 0 -90 0 0 -272 0
-272 -51 87 c-132 220 -353 386 -584 437 -108 24 -306 26 -405 4z m268 -206
c79 -278 106 -462 105 -733 0 -292 -37 -525 -120 -760 l-28 -80 -50 4 c-27 1
-51 4 -53 5 -1 2 14 61 33 132 118 426 125 910 22 1372 l-24 102 52 0 51 0 12
-42z m-194 -4 c4 -19 9 -41 12 -48 3 -8 -21 -20 -68 -35 -114 -37 -271 -109
-364 -167 -46 -29 -84 -48 -84 -42 0 23 178 186 248 228 58 34 216 99 243 100
4 0 10 -16 13 -36z m362 0 c28 -12 33 -22 62 -121 64 -222 83 -364 83 -608 0
-247 -21 -405 -82 -634 -46 -174 -48 -177 -110 -190 -28 -6 -54 -10 -56 -8 -2
2 12 58 31 124 127 441 133 923 17 1357 l-29 106 27 -7 c14 -3 40 -12 57 -19z
m197 -106 c34 -24 50 -61 87 -203 49 -186 63 -314 57 -530 -5 -205 -19 -304
-68 -482 l-31 -113 -55 -31 c-30 -17 -56 -29 -59 -27 -2 3 9 56 26 119 61 235
74 348 74 634 1 278 -7 352 -59 558 -14 54 -25 100 -25 103 0 6 14 -1 53 -28z
m-514 -105 c6 -31 10 -57 8 -57 -289 -97 -452 -179 -675 -342 -23 -17 -23 -17
-17 12 18 80 28 96 93 148 96 77 198 141 315 196 85 41 236 99 258 100 3 0 11
-26 18 -57z m745 -153 c45 -76 83 -173 102 -262 23 -106 21 -282 -5 -383 -22
-84 -95 -241 -135 -288 l-23 -29 23 113 c60 292 58 599 -5 864 -21 88 -17 87
43 -15z m-720 -31 c3 -17 6 -46 6 -63 0 -30 -3 -32 -93 -65 -189 -69 -379
-173 -545 -297 -40 -30 -77 -52 -82 -49 -6 3 -10 30 -10 59 l0 52 68 56 c147
121 367 243 553 307 46 16 87 30 90 30 4 1 9 -13 13 -30z m16 -259 c0 -58 -3
-72 -17 -77 -160 -57 -401 -181 -560 -289 -51 -35 -95 -59 -98 -54 -3 5 -12
27 -20 50 l-14 40 57 46 c82 65 234 166 327 216 70 37 296 136 318 137 4 1 7
-31 7 -69z m-4 -254 l-7 -62 -135 -63 c-131 -63 -293 -162 -363 -223 l-35 -30
-27 33 c-66 81 -66 78 16 136 186 130 542 311 554 281 2 -5 0 -37 -3 -72z
m-27 -226 c-13 -82 -18 -100 -30 -100 -21 0 -213 -101 -276 -145 l-61 -43 -41
35 -41 35 37 30 c80 64 193 135 302 190 63 32 116 57 117 55 1 -1 -2 -27 -7
-57z m-44 -222 c-4 -13 -18 -60 -32 -105 -30 -95 -25 -94 -142 -41 l-65 29 38
25 c34 23 196 113 204 114 2 0 0 -10 -3 -22z"/>
<path d="M6146 5118 c-20 -29 -41 -96 -56 -180 -13 -75 -36 -104 -72 -95 -13
4 -80 51 -148 107 -142 114 -180 136 -209 121 -63 -34 -56 -181 30 -638 22
-116 22 -130 11 -270 -7 -81 -12 -212 -12 -289 0 -161 -8 -182 -78 -205 -129
-42 -428 -182 -602 -282 -506 -291 -801 -570 -977 -922 -151 -300 -229 -710
-221 -1157 l3 -177 -30 -31 c-37 -38 -148 -94 -235 -117 -93 -25 -414 -24
-515 1 -221 57 -370 214 -437 461 -30 115 -31 365 0 477 27 101 80 205 147
293 63 83 110 128 225 220 100 79 152 135 176 188 21 45 14 62 -35 91 -87 51
-207 9 -355 -122 -270 -242 -407 -480 -447 -779 -17 -128 -6 -376 21 -478 29
-111 108 -267 174 -347 107 -129 266 -232 431 -279 l80 -23 1692 -3 1692 -4
17 27 c23 34 20 40 -116 299 -174 333 -214 463 -215 700 0 178 2 184 139 398
91 143 127 211 190 357 23 53 67 136 97 185 31 50 88 153 128 230 98 191 166
283 276 374 50 42 140 125 200 187 174 177 222 274 241 487 5 52 18 97 47 162
76 174 109 260 119 315 6 30 17 82 25 116 15 59 17 62 67 87 68 34 121 54 180
68 37 9 63 26 111 71 73 68 82 96 50 159 -26 52 -62 67 -164 68 -70 1 -81 -2
-177 -50 -91 -44 -112 -60 -181 -134 -43 -46 -88 -103 -100 -127 -12 -24 -53
-101 -91 -173 -37 -71 -85 -177 -106 -235 -57 -161 -174 -389 -211 -412 -61
-37 -260 -14 -297 35 -34 43 -60 129 -55 180 4 42 20 72 109 205 127 189 126
187 151 282 28 110 30 125 18 162 -25 73 -38 80 -162 94 l-114 13 -42 47 c-40
44 -45 46 -90 43 -63 -4 -153 9 -180 27 -13 8 -27 35 -38 71 -24 87 -46 143
-55 143 -5 0 -16 -10 -24 -22z m-536 -3263 c7 -8 25 -99 41 -202 47 -298 72
-380 194 -623 36 -71 65 -139 65 -151 0 -19 -4 -20 -37 -14 -21 4 -82 7 -136
6 -111 -1 -113 0 -215 77 -74 55 -74 56 -142 54 -97 -1 -103 9 -57 101 45 92
62 143 82 253 19 100 15 161 -15 209 -11 18 -20 41 -20 51 0 11 28 64 63 119
46 73 72 105 97 117 43 22 64 23 80 3z"/>
</g>
</svg>
